<svg width="24" height="24" viewBox="0 0 24 24" class="ionicon s-ion-icon" xmlns="http://www.w3.org/2000/svg">
<path d="M3.3999 20.0357C3.3999 20.2915 3.5015 20.5367 3.68234 20.7176C3.86317 20.8984 4.10844 21 4.36419 21H20.4356C20.6914 21 20.9366 20.8984 21.1175 20.7176C21.2983 20.5367 21.3999 20.2915 21.3999 20.0357V8.78571H3.3999V20.0357ZM16.257 10.2321C16.257 10.1895 16.274 10.1486 16.3041 10.1185C16.3343 10.0884 16.3751 10.0714 16.4178 10.0714H18.0249C18.0675 10.0714 18.1084 10.0884 18.1385 10.1185C18.1687 10.1486 18.1856 10.1895 18.1856 10.2321V11.8393C18.1856 11.8819 18.1687 11.9228 18.1385 11.9529C18.1084 11.9831 18.0675 12 18.0249 12H16.4178C16.3751 12 16.3343 11.9831 16.3041 11.9529C16.274 11.9228 16.257 11.8819 16.257 11.8393V10.2321ZM16.257 13.4464C16.257 13.4038 16.274 13.3629 16.3041 13.3328C16.3343 13.3026 16.3751 13.2857 16.4178 13.2857H18.0249C18.0675 13.2857 18.1084 13.3026 18.1385 13.3328C18.1687 13.3629 18.1856 13.4038 18.1856 13.4464V15.0536C18.1856 15.0962 18.1687 15.1371 18.1385 15.1672C18.1084 15.1974 18.0675 15.2143 18.0249 15.2143H16.4178C16.3751 15.2143 16.3343 15.1974 16.3041 15.1672C16.274 15.1371 16.257 15.0962 16.257 15.0536V13.4464ZM13.0428 10.2321C13.0428 10.1895 13.0597 10.1486 13.0898 10.1185C13.12 10.0884 13.1608 10.0714 13.2035 10.0714H14.8106C14.8532 10.0714 14.8941 10.0884 14.9243 10.1185C14.9544 10.1486 14.9713 10.1895 14.9713 10.2321V11.8393C14.9713 11.8819 14.9544 11.9228 14.9243 11.9529C14.8941 11.9831 14.8532 12 14.8106 12H13.2035C13.1608 12 13.12 11.9831 13.0898 11.9529C13.0597 11.9228 13.0428 11.8819 13.0428 11.8393V10.2321ZM13.0428 13.4464C13.0428 13.4038 13.0597 13.3629 13.0898 13.3328C13.12 13.3026 13.1608 13.2857 13.2035 13.2857H14.8106C14.8532 13.2857 14.8941 13.3026 14.9243 13.3328C14.9544 13.3629 14.9713 13.4038 14.9713 13.4464V15.0536C14.9713 15.0962 14.9544 15.1371 14.9243 15.1672C14.8941 15.1974 14.8532 15.2143 14.8106 15.2143H13.2035C13.1608 15.2143 13.12 15.1974 13.0898 15.1672C13.0597 15.1371 13.0428 15.0962 13.0428 15.0536V13.4464ZM13.0428 16.6607C13.0428 16.6181 13.0597 16.5772 13.0898 16.5471C13.12 16.5169 13.1608 16.5 13.2035 16.5H14.8106C14.8532 16.5 14.8941 16.5169 14.9243 16.5471C14.9544 16.5772 14.9713 16.6181 14.9713 16.6607V18.2679C14.9713 18.3105 14.9544 18.3514 14.9243 18.3815C14.8941 18.4116 14.8532 18.4286 14.8106 18.4286H13.2035C13.1608 18.4286 13.12 18.4116 13.0898 18.3815C13.0597 18.3514 13.0428 18.3105 13.0428 18.2679V16.6607ZM9.82847 13.4464C9.82847 13.4038 9.84541 13.3629 9.87555 13.3328C9.90569 13.3026 9.94656 13.2857 9.98919 13.2857H11.5963C11.639 13.2857 11.6798 13.3026 11.71 13.3328C11.7401 13.3629 11.757 13.4038 11.757 13.4464V15.0536C11.757 15.0962 11.7401 15.1371 11.71 15.1672C11.6798 15.1974 11.639 15.2143 11.5963 15.2143H9.98919C9.94656 15.2143 9.90569 15.1974 9.87555 15.1672C9.84541 15.1371 9.82847 15.0962 9.82847 15.0536V13.4464ZM9.82847 16.6607C9.82847 16.6181 9.84541 16.5772 9.87555 16.5471C9.90569 16.5169 9.94656 16.5 9.98919 16.5H11.5963C11.639 16.5 11.6798 16.5169 11.71 16.5471C11.7401 16.5772 11.757 16.6181 11.757 16.6607V18.2679C11.757 18.3105 11.7401 18.3514 11.71 18.3815C11.6798 18.4116 11.639 18.4286 11.5963 18.4286H9.98919C9.94656 18.4286 9.90569 18.4116 9.87555 18.3815C9.84541 18.3514 9.82847 18.3105 9.82847 18.2679V16.6607ZM6.61419 13.4464C6.61419 13.4038 6.63112 13.3629 6.66126 13.3328C6.6914 13.3026 6.73228 13.2857 6.7749 13.2857H8.38205C8.42467 13.2857 8.46555 13.3026 8.49569 13.3328C8.52583 13.3629 8.54276 13.4038 8.54276 13.4464V15.0536C8.54276 15.0962 8.52583 15.1371 8.49569 15.1672C8.46555 15.1974 8.42467 15.2143 8.38205 15.2143H6.7749C6.73228 15.2143 6.6914 15.1974 6.66126 15.1672C6.63112 15.1371 6.61419 15.0962 6.61419 15.0536V13.4464ZM6.61419 16.6607C6.61419 16.6181 6.63112 16.5772 6.66126 16.5471C6.6914 16.5169 6.73228 16.5 6.7749 16.5H8.38205C8.42467 16.5 8.46555 16.5169 8.49569 16.5471C8.52583 16.5772 8.54276 16.6181 8.54276 16.6607V18.2679C8.54276 18.3105 8.52583 18.3514 8.49569 18.3815C8.46555 18.4116 8.42467 18.4286 8.38205 18.4286H6.7749C6.73228 18.4286 6.6914 18.4116 6.66126 18.3815C6.63112 18.3514 6.61419 18.3105 6.61419 18.2679V16.6607ZM20.4356 4.28571H18.1888V3H16.2603V4.28571H8.53955V3H6.61097V4.28571H4.36419C4.23804 4.28465 4.11293 4.30857 3.99606 4.35607C3.87919 4.40358 3.77288 4.47374 3.68324 4.56251C3.59361 4.65129 3.52243 4.75692 3.4738 4.87332C3.42517 4.98973 3.40006 5.1146 3.3999 5.24076V7.5H21.3999V5.24076C21.3997 5.1146 21.3746 4.98973 21.326 4.87332C21.2774 4.75692 21.2062 4.65129 21.1166 4.56251C21.0269 4.47374 20.9206 4.40358 20.8037 4.35607C20.6869 4.30857 20.5618 4.28465 20.4356 4.28571Z"/>
</svg>
