<svg width="24" height="24" viewBox="0 0 24 24" class="ionicon s-ion-icon" xmlns="http://www.w3.org/2000/svg">
<path d="M5.58125 21H3.8V4.01933L4.01985 3.83129C4.18157 3.69228 5.14907 3 8.3 3C10.0442 3 11.9952 3.59103 13.7164 4.11214C15.1025 4.53201 16.4117 4.92857 17.3 4.92857C19.3077 4.92857 20.7088 4.35603 20.7219 4.35L21.8 3.90241V14.3259L21.3856 14.5035C21.3177 14.5312 19.6995 15.2143 17.3 15.2143C16.1684 15.2143 14.7509 14.9274 13.2505 14.6233C11.5639 14.2817 9.82016 13.9286 8.3 13.9286C6.57172 13.9286 5.96844 14.1528 5.58125 14.2946V21Z"/>
</svg>
