<svg width="24" height="24" viewBox="0 0 24 24" class="ionicon s-ion-icon" xmlns="http://www.w3.org/2000/svg">
<path id="Vector" d="M21.0454 7.61338C20.9416 7.20291 20.7815 6.80915 20.5697 6.44361C20.3662 6.06334 20.106 5.71701 19.7983 5.4168C19.3521 4.96726 18.8238 4.6097 18.2427 4.36401C17.0729 3.87866 15.7612 3.87866 14.5915 4.36401C14.0422 4.59905 13.5376 4.9289 13.1001 5.33882L13.0359 5.4168L12.2002 6.26164L11.3645 5.4168L11.3002 5.33882C10.8628 4.9289 10.3582 4.59905 9.80891 4.36401C8.63919 3.87866 7.32744 3.87866 6.15771 4.36401C5.57659 4.6097 5.04825 4.96726 4.6021 5.4168C3.99189 6.01707 3.55993 6.77793 3.35503 7.61338C3.24603 8.03765 3.19414 8.47484 3.20076 8.91313C3.20076 9.32645 3.25218 9.73717 3.35503 10.1349C3.46281 10.5379 3.61821 10.9263 3.81786 11.2917C4.03348 11.6673 4.29717 12.0126 4.6021 12.3185L12.2002 20L19.7983 12.3185C20.103 12.0169 20.364 11.6712 20.5697 11.2917C20.9872 10.5704 21.2048 9.7488 21.1996 8.91313C21.2063 8.47484 21.1544 8.03764 21.0454 7.61338Z"/>
</svg>
