<svg width="28" height="25" viewBox="0 0 28 25" fill="none" xmlns="http://www.w3.org/2000/svg">
<path d="M27.2742 5.7679L27.2747 5.76986C27.4334 6.38976 27.5089 7.02865 27.4992 7.6692L27.4991 7.66919L27.4991 7.67987C27.5067 8.89727 27.191 10.0938 26.586 11.1436L26.5858 11.1435L26.5791 11.1558C26.2828 11.705 25.9065 12.2059 25.4667 12.643L25.4667 12.643L25.463 12.6468L14 24.2874L2.537 12.6468L2.53565 12.6454C2.0935 12.1999 1.71081 11.697 1.39753 11.1497C1.10751 10.6157 0.881546 10.0481 0.724553 9.45911C0.575591 8.87978 0.500874 8.28064 0.500874 7.67677H0.500931L0.500818 7.66925C0.491186 7.02868 0.566695 6.38976 0.725264 5.76981L0.725293 5.76982L0.726591 5.7645C1.02352 4.54837 1.64929 3.44179 2.53217 2.56942L2.53219 2.56944L2.53641 2.56518C3.18447 1.90928 3.95143 1.3879 4.79447 1.02964C6.48971 0.323593 8.39002 0.323454 10.0853 1.02922C10.8753 1.36911 11.6022 1.84432 12.2343 2.43434L12.3136 2.53094L12.3279 2.54844L12.3438 2.56458L13.6437 3.88464L14 4.24642L14.3563 3.88464L15.6562 2.56458L15.6721 2.54844L15.6864 2.53094L15.7657 2.43435C16.3978 1.84432 17.1247 1.36911 17.9146 1.02923C19.61 0.323446 21.5103 0.323591 23.2056 1.02966C24.0486 1.38792 24.8155 1.90929 25.4636 2.56518L25.4635 2.56522L25.4693 2.57088C25.9113 3.00402 26.2853 3.50394 26.5779 4.0532L26.5819 4.06067L26.5861 4.06799C26.8924 4.59902 27.1241 5.17121 27.2742 5.7679Z" fill="#B50000" stroke="#B50000"/>
</svg>
