<svg width="34" height="30" viewBox="0 0 34 30" fill="none" xmlns="http://www.w3.org/2000/svg">
<path d="M33.223 6.89845L33.2235 6.90043C33.4182 7.65248 33.5109 8.42749 33.499 9.20446L33.4989 9.20446L33.4989 9.21527C33.5082 10.6926 33.1206 12.1451 32.3771 13.42L32.3769 13.4199L32.3702 13.4323C32.0056 14.0999 31.5427 14.7089 31.0015 15.2405L31.0015 15.2404L30.9978 15.2442L17 29.2916L3.00222 15.2442L3.00086 15.2429C2.45728 14.7015 1.98701 14.0907 1.60218 13.4262C1.24594 12.7781 0.968487 12.0894 0.775796 11.3749C0.592791 10.6717 0.501061 9.94465 0.501061 9.21212H0.501119L0.501004 9.20451C0.489181 8.42752 0.581859 7.65248 0.776521 6.90037L0.776551 6.90038L0.777876 6.89502C1.1426 5.41878 1.91147 4.07457 2.99736 3.01424L2.99738 3.01427L3.00162 3.01003C3.79813 2.21336 4.74121 1.57971 5.77838 1.1442C7.86465 0.285406 10.2038 0.285267 12.2902 1.14378C13.2635 1.55755 14.1585 2.13634 14.9363 2.85479L15.0369 2.97593L15.0513 2.99337L15.0673 3.00943L16.6458 4.5935L17 4.94894L17.3542 4.5935L18.9326 3.00943L18.9486 2.99337L18.9631 2.97593L19.0637 2.85479C19.8414 2.13633 20.7365 1.55754 21.7098 1.14377C23.7962 0.28527 26.1353 0.28541 28.2216 1.14419C29.2588 1.5797 30.2018 2.21336 30.9984 3.01003L30.9983 3.01007L31.0041 3.0157C31.5485 3.54287 32.0088 4.15109 32.3689 4.819L32.3729 4.82649L32.3772 4.83384C32.7538 5.47897 33.0385 6.17393 33.223 6.89845ZM32.809 13.6719C33.5977 12.3196 34.0088 10.779 33.9989 9.21212L31.3519 15.5971C31.9275 15.0317 32.4205 14.3835 32.809 13.6719Z" fill="white" stroke="#B50000"/>
</svg>
