<svg width="22" height="20" viewBox="0 0 22 20" fill="none" xmlns="http://www.w3.org/2000/svg">
<path d="M21.3253 4.63667L21.3258 4.6386C21.4485 5.12657 21.5069 5.62959 21.4994 6.13398L21.4992 6.13398L21.4993 6.14446C21.5052 7.10245 21.2612 8.04344 20.7942 8.86827L20.7941 8.86818L20.7876 8.88046C20.5592 9.31132 20.2694 9.70406 19.9309 10.0467L19.9309 10.0467L19.9271 10.0505L11 19.2808L2.07284 10.0505L2.07151 10.0491C1.73068 9.69941 1.4354 9.3045 1.19348 8.87439C0.969525 8.45432 0.7949 8.00771 0.673495 7.54409C0.558453 7.08842 0.500687 6.61689 0.500687 6.14141H0.500741L0.500632 6.13403C0.493183 5.62961 0.551585 5.12656 0.674179 4.63855L0.674207 4.63855L0.675462 4.63332C0.904835 3.67679 1.38794 2.80772 2.06806 2.12349L2.06808 2.12351L2.07226 2.11921C2.57203 1.6042 3.16291 1.19536 3.81162 0.914617C5.11521 0.361938 6.57576 0.361794 7.87943 0.914187C8.48588 1.17996 9.04465 1.55135 9.53133 2.0128L9.58933 2.08476L9.60351 2.10236L9.61923 2.11861L10.6406 3.17465L11 3.54626L11.3594 3.17465L12.3808 2.11861L12.3965 2.10236L12.4107 2.08476L12.4687 2.0128C12.9553 1.55135 13.5141 1.17996 14.1206 0.91419C15.4242 0.36179 16.8848 0.361937 18.1884 0.91463C18.8371 1.19538 19.428 1.6042 19.9277 2.11921L19.9277 2.11925L19.9334 2.12496C20.2732 2.46395 20.561 2.85557 20.7863 3.28629L20.7902 3.29371L20.7943 3.301C21.0306 3.71799 21.2094 4.16757 21.3253 4.63667Z" fill="#B50000" stroke="#B50000"/>
</svg>
