<svg width="24" height="24" viewBox="0 0 24 24" fill="none" xmlns="http://www.w3.org/2000/svg">
<g id="carbon:add-filled">
<path id="Vector" d="M12 1.5C9.22568 1.53366 6.57448 2.65072 4.6126 4.6126C2.65072 6.57448 1.53366 9.22568 1.5 12C1.53366 14.7743 2.65072 17.4255 4.6126 19.3874C6.57448 21.3493 9.22568 22.4663 12 22.5C14.7743 22.4663 17.4255 21.3493 19.3874 19.3874C21.3493 17.4255 22.4663 14.7743 22.5 12C22.4663 9.22568 21.3493 6.57448 19.3874 4.6126C17.4255 2.65072 14.7743 1.53366 12 1.5ZM18 12.75H12.75V18H11.25V12.75H6V11.25H11.25V6H12.75V11.25H18V12.75Z" fill="black"/>
</g>
</svg>
