<svg width="18" height="18" viewBox="0 0 18 18" fill="none" xmlns="http://www.w3.org/2000/svg">
<g id="mdi:location">
<path id="Vector" d="M3.40039 14.3571C3.40039 14.5276 3.46812 14.6912 3.58868 14.8117C3.70924 14.9323 3.87275 15 4.04325 15H14.7575C14.928 15 15.0915 14.9323 15.2121 14.8117C15.3327 14.6912 15.4004 14.5276 15.4004 14.3571V6.85714H3.40039V14.3571ZM11.9718 7.82143C11.9718 7.79301 11.9831 7.76576 12.0032 7.74567C12.0233 7.72557 12.0505 7.71429 12.079 7.71429H13.1504C13.1788 7.71429 13.2061 7.72557 13.2262 7.74567C13.2462 7.76576 13.2575 7.79301 13.2575 7.82143V8.89286C13.2575 8.92127 13.2462 8.94853 13.2262 8.96862C13.2061 8.98871 13.1788 9 13.1504 9H12.079C12.0505 9 12.0233 8.98871 12.0032 8.96862C11.9831 8.94853 11.9718 8.92127 11.9718 8.89286V7.82143ZM11.9718 9.96429C11.9718 9.93587 11.9831 9.90862 12.0032 9.88852C12.0233 9.86843 12.0505 9.85714 12.079 9.85714H13.1504C13.1788 9.85714 13.2061 9.86843 13.2262 9.88852C13.2462 9.90862 13.2575 9.93587 13.2575 9.96429V11.0357C13.2575 11.0641 13.2462 11.0914 13.2262 11.1115C13.2061 11.1316 13.1788 11.1429 13.1504 11.1429H12.079C12.0505 11.1429 12.0233 11.1316 12.0032 11.1115C11.9831 11.0914 11.9718 11.0641 11.9718 11.0357V9.96429ZM9.82896 7.82143C9.82896 7.79301 9.84025 7.76576 9.86034 7.74567C9.88044 7.72557 9.90769 7.71429 9.9361 7.71429H11.0075C11.0359 7.71429 11.0632 7.72557 11.0833 7.74567C11.1034 7.76576 11.1147 7.79301 11.1147 7.82143V8.89286C11.1147 8.92127 11.1034 8.94853 11.0833 8.96862C11.0632 8.98871 11.0359 9 11.0075 9H9.9361C9.90769 9 9.88044 8.98871 9.86034 8.96862C9.84025 8.94853 9.82896 8.92127 9.82896 8.89286V7.82143ZM9.82896 9.96429C9.82896 9.93587 9.84025 9.90862 9.86034 9.88852C9.88044 9.86843 9.90769 9.85714 9.9361 9.85714H11.0075C11.0359 9.85714 11.0632 9.86843 11.0833 9.88852C11.1034 9.90862 11.1147 9.93587 11.1147 9.96429V11.0357C11.1147 11.0641 11.1034 11.0914 11.0833 11.1115C11.0632 11.1316 11.0359 11.1429 11.0075 11.1429H9.9361C9.90769 11.1429 9.88044 11.1316 9.86034 11.1115C9.84025 11.0914 9.82896 11.0641 9.82896 11.0357V9.96429ZM9.82896 12.1071C9.82896 12.0787 9.84025 12.0515 9.86034 12.0314C9.88044 12.0113 9.90769 12 9.9361 12H11.0075C11.0359 12 11.0632 12.0113 11.0833 12.0314C11.1034 12.0515 11.1147 12.0787 11.1147 12.1071V13.1786C11.1147 13.207 11.1034 13.2342 11.0833 13.2543C11.0632 13.2744 11.0359 13.2857 11.0075 13.2857H9.9361C9.90769 13.2857 9.88044 13.2744 9.86034 13.2543C9.84025 13.2342 9.82896 13.207 9.82896 13.1786V12.1071ZM7.6861 9.96429C7.6861 9.93587 7.69739 9.90862 7.71749 9.88852C7.73758 9.86843 7.76483 9.85714 7.79325 9.85714H8.86468C8.89309 9.85714 8.92034 9.86843 8.94044 9.88852C8.96053 9.90862 8.97182 9.93587 8.97182 9.96429V11.0357C8.97182 11.0641 8.96053 11.0914 8.94044 11.1115C8.92034 11.1316 8.89309 11.1429 8.86468 11.1429H7.79325C7.76483 11.1429 7.73758 11.1316 7.71749 11.1115C7.69739 11.0914 7.6861 11.0641 7.6861 11.0357V9.96429ZM7.6861 12.1071C7.6861 12.0787 7.69739 12.0515 7.71749 12.0314C7.73758 12.0113 7.76483 12 7.79325 12H8.86468C8.89309 12 8.92034 12.0113 8.94044 12.0314C8.96053 12.0515 8.97182 12.0787 8.97182 12.1071V13.1786C8.97182 13.207 8.96053 13.2342 8.94044 13.2543C8.92034 13.2744 8.89309 13.2857 8.86468 13.2857H7.79325C7.76483 13.2857 7.73758 13.2744 7.71749 13.2543C7.69739 13.2342 7.6861 13.207 7.6861 13.1786V12.1071ZM5.54325 9.96429C5.54325 9.93587 5.55454 9.90862 5.57463 9.88852C5.59472 9.86843 5.62197 9.85714 5.65039 9.85714H6.72182C6.75024 9.85714 6.77749 9.86843 6.79758 9.88852C6.81767 9.90862 6.82896 9.93587 6.82896 9.96429V11.0357C6.82896 11.0641 6.81767 11.0914 6.79758 11.1115C6.77749 11.1316 6.75024 11.1429 6.72182 11.1429H5.65039C5.62197 11.1429 5.59472 11.1316 5.57463 11.1115C5.55454 11.0914 5.54325 11.0641 5.54325 11.0357V9.96429ZM5.54325 12.1071C5.54325 12.0787 5.55454 12.0515 5.57463 12.0314C5.59472 12.0113 5.62197 12 5.65039 12H6.72182C6.75024 12 6.77749 12.0113 6.79758 12.0314C6.81767 12.0515 6.82896 12.0787 6.82896 12.1071V13.1786C6.82896 13.207 6.81767 13.2342 6.79758 13.2543C6.77749 13.2744 6.75024 13.2857 6.72182 13.2857H5.65039C5.62197 13.2857 5.59472 13.2744 5.57463 13.2543C5.55454 13.2342 5.54325 13.207 5.54325 13.1786V12.1071ZM14.7575 3.85714H13.2597V3H11.974V3.85714H6.82682V3H5.5411V3.85714H4.04325C3.95915 3.85644 3.87574 3.87238 3.79783 3.90405C3.71992 3.93572 3.64904 3.98249 3.58929 4.04167C3.52953 4.10086 3.48208 4.17128 3.44966 4.24888C3.41724 4.32649 3.40049 4.40974 3.40039 4.49384V6H15.4004V4.49384C15.4003 4.40974 15.3835 4.32649 15.3511 4.24888C15.3187 4.17128 15.2713 4.10086 15.2115 4.04167C15.1517 3.98249 15.0809 3.93572 15.003 3.90405C14.925 3.87238 14.8416 3.85644 14.7575 3.85714Z" fill="white"/>
</g>
</svg>
