<svg width="12" height="12" viewBox="0 0 12 12" fill="none" xmlns="http://www.w3.org/2000/svg">
<path d="M7.45844 5.99991L11.5405 1.91788C11.7342 1.72449 11.8432 1.46206 11.8434 1.18832C11.8437 0.914586 11.7352 0.651965 11.5418 0.458232C11.3484 0.2645 11.0859 0.155527 10.8122 0.155285C10.5385 0.155043 10.2758 0.263553 10.0821 0.456943L6.00008 4.53897L1.91805 0.456943C1.72432 0.263211 1.46156 0.154373 1.18758 0.154373C0.913601 0.154373 0.650844 0.263211 0.457111 0.456943C0.263379 0.650676 0.154541 0.913433 0.154541 1.18741C0.154541 1.46139 0.263379 1.72415 0.457111 1.91788L4.53914 5.99991L0.457111 10.0819C0.263379 10.2757 0.154541 10.5384 0.154541 10.8124C0.154541 11.0864 0.263379 11.3491 0.457111 11.5429C0.650844 11.7366 0.913601 11.8455 1.18758 11.8455C1.46156 11.8455 1.72432 11.7366 1.91805 11.5429L6.00008 7.46085L10.0821 11.5429C10.2758 11.7366 10.5386 11.8455 10.8126 11.8455C11.0866 11.8455 11.3493 11.7366 11.543 11.5429C11.7368 11.3491 11.8456 11.0864 11.8456 10.8124C11.8456 10.5384 11.7368 10.2757 11.543 10.0819L7.45844 5.99991Z" fill="#FF0000"/>
</svg>
