<svg width="16" height="16" viewBox="0 0 16 16" fill="none" xmlns="http://www.w3.org/2000/svg">
<g id="icon location">
<path id="Vector" fill-rule="evenodd" clip-rule="evenodd" d="M11 6.12465C11.0014 6.78758 10.7949 7.4332 10.4113 7.96518L8 11.2812L5.58867 7.96518C5.30634 7.5718 5.11853 7.11495 5.04066 6.63217C4.96279 6.14939 4.99709 5.65445 5.14074 5.18799C5.28439 4.72154 5.53329 4.29688 5.867 3.94891C6.2007 3.60094 6.6097 3.33957 7.06038 3.18628C7.51106 3.03299 7.99057 2.99216 8.45953 3.06712C8.92849 3.14209 9.37352 3.33072 9.75805 3.61753C10.1426 3.90433 10.4557 4.28113 10.6716 4.71696C10.8875 5.1528 11 5.63523 11 6.12465ZM12 6.12465C12 7.04594 11.7073 7.89574 11.2133 8.5819L8.62467 12.1406L8 13L7.37467 12.1406L4.78667 8.5819C4.40979 8.0576 4.15892 7.44857 4.05466 6.80483C3.9504 6.1611 3.99573 5.50104 4.18693 4.87889C4.37812 4.25673 4.70973 3.69024 5.1545 3.22596C5.59927 2.76168 6.14451 2.41286 6.74541 2.20816C7.34632 2.00346 7.98575 1.94872 8.61116 2.04844C9.23657 2.14816 9.83012 2.39949 10.343 2.78178C10.8559 3.16408 11.2736 3.66643 11.5616 4.24755C11.8497 4.82868 11.9999 5.472 12 6.12465ZM8 7.49972C8.35362 7.49972 8.69276 7.35484 8.94281 7.09697C9.19286 6.83909 9.33333 6.48934 9.33333 6.12465C9.33333 5.75996 9.19286 5.4102 8.94281 5.15233C8.69276 4.89445 8.35362 4.74958 8 4.74958C7.64638 4.74958 7.30724 4.89445 7.05719 5.15233C6.80714 5.4102 6.66667 5.75996 6.66667 6.12465C6.66667 6.48934 6.80714 6.83909 7.05719 7.09697C7.30724 7.35484 7.64638 7.49972 8 7.49972Z" fill="black"/>
</g>
</svg>
