<svg width="19" height="17" viewBox="0 0 19 17" fill="none" xmlns="http://www.w3.org/2000/svg">
<path d="M12.1154 4.75V2.875C12.1154 2.37772 11.9432 1.90081 11.6366 1.54917C11.3301 1.19754 10.9143 1 10.4808 1H2.63462C2.20109 1 1.78532 1.19754 1.47877 1.54917C1.17222 1.90081 1 2.37772 1 2.875V14.125C1 14.6223 1.17222 15.0992 1.47877 15.4508C1.78532 15.8025 2.20109 16 2.63462 16H10.4808C10.9143 16 11.3301 15.8025 11.6366 15.4508C11.9432 15.0992 12.1154 14.6223 12.1154 14.125V12.25M14.7308 4.75L18 8.5M18 8.5L14.7308 12.25M18 8.5H6.84375" stroke="#C2BFBE" stroke-width="1.5" stroke-linecap="round" stroke-linejoin="round"/>
</svg>
