<svg width="18" height="18" viewBox="0 0 18 18" fill="none" xmlns="http://www.w3.org/2000/svg">
<g id="mdi:location">
<path id="Vector" d="M9 8.625C8.50272 8.625 8.02581 8.42746 7.67417 8.07583C7.32254 7.72419 7.125 7.24728 7.125 6.75C7.125 6.25272 7.32254 5.77581 7.67417 5.42417C8.02581 5.07254 8.50272 4.875 9 4.875C9.49728 4.875 9.97419 5.07254 10.3258 5.42417C10.6775 5.77581 10.875 6.25272 10.875 6.75C10.875 6.99623 10.8265 7.24005 10.7323 7.46753C10.638 7.69502 10.4999 7.90172 10.3258 8.07583C10.1517 8.24994 9.94502 8.38805 9.71753 8.48227C9.49005 8.5765 9.24623 8.625 9 8.625ZM9 1.5C7.60761 1.5 6.27226 2.05312 5.28769 3.03769C4.30312 4.02226 3.75 5.35761 3.75 6.75C3.75 10.6875 9 16.5 9 16.5C9 16.5 14.25 10.6875 14.25 6.75C14.25 5.35761 13.6969 4.02226 12.7123 3.03769C11.7277 2.05312 10.3924 1.5 9 1.5Z" fill="white"/>
</g>
</svg>
