<svg width="12" height="12" viewBox="0 0 12 12" fill="none" xmlns="http://www.w3.org/2000/svg">
<path d="M7.4585 5.99993L11.5405 1.9179C11.7343 1.72451 11.8432 1.46208 11.8435 1.18834C11.8437 0.914602 11.7352 0.65198 11.5418 0.458248C11.3484 0.264515 11.086 0.155542 10.8123 0.1553C10.5385 0.155058 10.2759 0.263568 10.0822 0.456959L6.00014 4.53899L1.91811 0.456959C1.72438 0.263226 1.46162 0.154388 1.18764 0.154388C0.913662 0.154388 0.650905 0.263226 0.457172 0.456959C0.26344 0.650691 0.154602 0.913448 0.154602 1.18743C0.154602 1.46141 0.26344 1.72416 0.457172 1.9179L4.5392 5.99993L0.457172 10.082C0.26344 10.2757 0.154602 10.5384 0.154602 10.8124C0.154602 11.0864 0.26344 11.3492 0.457172 11.5429C0.650905 11.7366 0.913662 11.8455 1.18764 11.8455C1.46162 11.8455 1.72438 11.7366 1.91811 11.5429L6.00014 7.46086L10.0822 11.5429C10.2759 11.7366 10.5387 11.8455 10.8126 11.8455C11.0866 11.8455 11.3494 11.7366 11.5431 11.5429C11.7368 11.3492 11.8457 11.0864 11.8457 10.8124C11.8457 10.5384 11.7368 10.2757 11.5431 10.082L7.4585 5.99993Z" fill="#008000"/>
</svg>
